# xmcd CD database file generated by OrangeCD 5.2
#
# Track frame offsets:
#	150
#	14690
#	29125
#	39503
#	54602
#	66281
#	79629
#	92548
#	105768
#	118139
#	137612
#	155667
#	168534
#	183573
#	202453
#	219564
#
# Disc length: 3177 seconds
#
# Revision: 0
# Processed by: cddbd v1.5.1PL0 Copyright (c) Steve Scherf et al.
# Submitted via: OrangeCD 5.2
#
DISCID=ea0c6710
DTITLE=Various Artist - When A Man Loves A Woman   Disc 1
DYEAR=2005
DGENRE=R&B Compilation
TTITLE0=Tony Bennett - As Time Goes By
TTITLE1=Nat King Cole - Unforgettable
TTITLE2=Dean Martin - Memories Are Made Of This
TTITLE3=Lou Rawls - Georgia On My Mind
TTITLE4=The Drifters - Save The Last Dance For Me
TTITLE5=Percy Sledge - When A Man Loves A Woman
TTITLE6=The Miracles - You Really Got A Hold On Me
TTITLE7=Otis Redding - I've Been Loving You Too Long 
TTITLE8=The Temptations - My Girl
TTITLE9=Bill Withers - Lean On Me
TTITLE10=Marvin Gaye - Sexual Healing
TTITLE11=Joe Cocker - You Are So Beautiful (Live)
TTITLE12=Engelbert Humperdinck - Release Me
TTITLE13=Bryan Ferry - More Than This
TTITLE14=Roy Orbison and K.D. Lang - Crying
TTITLE15=Amos Lee - Arms Of A Woman
EXTD=
EXTT0=
EXTT1=
EXTT2=
EXTT3=
EXTT4=
EXTT5=
EXTT6=
EXTT7=
EXTT8=
EXTT9=
EXTT10=
EXTT11=
EXTT12=
EXTT13=
EXTT14=
EXTT15=
PLAYORDER=
